<svg width="32" height="32" viewBox="0 0 32 32" fill="none" xmlns="http://www.w3.org/2000/svg">
<g clip-path="url(#clip0_13_82)">
<path fill-rule="evenodd" clip-rule="evenodd" d="M28.128 0C23.4868 0.000195553 19.0357 1.84407 15.754 5.126L14.836 6.042C14.208 6.67 13.604 7.324 13.028 8H6.61998C6.02234 8.00018 5.43472 8.15338 4.91306 8.445C4.39142 8.73664 3.95314 9.15698 3.63998 9.666L0.21998 15.214C0.0999276 15.409 0.0261148 15.6289 0.00419965 15.8568C-0.0177155 16.0848 0.0128488 16.3147 0.0935498 16.529C0.174251 16.7433 0.302946 16.9363 0.469772 17.0932C0.636596 17.25 0.837122 17.3666 1.05598 17.434L7.25998 19.342C7.33398 19.444 7.41798 19.542 7.50798 19.632L12.366 24.488C12.458 24.58 12.554 24.664 12.656 24.738L14.564 30.942C14.6314 31.1608 14.7479 31.3614 14.9048 31.5282C15.0617 31.695 15.2547 31.8238 15.469 31.9044C15.6833 31.9852 15.9132 32.0156 16.1411 31.9938C16.3691 31.9718 16.589 31.898 16.784 31.778L22.332 28.364C22.841 28.0508 23.2614 27.6126 23.553 27.091C23.8446 26.5692 23.9978 25.9816 23.998 25.384V18.97C24.674 18.394 25.328 17.79 25.956 17.162L26.872 16.244C30.1542 12.9631 31.9988 8.5128 32 3.872V3.5C32 2.57174 31.6312 1.6815 30.9748 1.02513C30.3184 0.368748 29.4282 0 28.5 0H28.128ZM21 21.25C20.824 21.37 20.646 21.486 20.468 21.6L15.768 24.642L16.864 28.208L20.762 25.808C20.8348 25.7632 20.8948 25.7006 20.9364 25.626C20.9782 25.5514 21 25.4674 21 25.382V21.25ZM7.35598 16.232L10.4 11.532C10.516 11.352 10.634 11.176 10.752 11H6.61798C6.53256 11 6.44854 11.0218 6.37398 11.0635C6.2994 11.1052 6.23674 11.1652 6.19198 11.238L3.79198 15.138L7.35598 16.232ZM17.876 7.246C20.5946 4.52782 24.2816 3.00056 28.126 3H28.498C28.6306 3 28.7578 3.05268 28.8516 3.14644C28.9454 3.24022 28.998 3.3674 28.998 3.5V3.872C28.9982 5.77626 28.6234 7.66192 27.8948 9.42132C27.1664 11.1807 26.0984 12.7794 24.752 14.126L23.834 15.042C22.314 16.562 20.64 17.916 18.836 19.082L14.202 22.082L9.91598 17.796L12.916 13.162C14.0828 11.3577 15.4369 9.6817 16.956 8.162L17.872 7.246H17.876ZM24 10C24 10.5304 23.7892 11.0391 23.4142 11.4142C23.0392 11.7893 22.5304 12 22 12C21.4696 12 20.9608 11.7893 20.5858 11.4142C20.2106 11.0391 20 10.5304 20 10C20 9.46956 20.2106 8.96086 20.5858 8.58578C20.9608 8.21072 21.4696 8 22 8C22.5304 8 23.0392 8.21072 23.4142 8.58578C23.7892 8.96086 24 9.46956 24 10ZM7.11998 29.12C7.41472 28.8454 7.65114 28.5142 7.8151 28.1462C7.97908 27.7782 8.06724 27.381 8.07434 26.978C8.08146 26.5752 8.00736 26.1752 7.85648 25.8016C7.70558 25.428 7.481 25.0888 7.19614 24.8038C6.91126 24.519 6.57192 24.2944 6.19838 24.1436C5.82482 23.9926 5.4247 23.9186 5.0219 23.9256C4.61908 23.9328 4.22182 24.021 3.85382 24.1848C3.48584 24.3488 3.15462 24.5852 2.87998 24.88C1.41198 26.34 0.78598 29.544 0.57998 30.886C0.5678 30.9584 0.573094 31.0326 0.59542 31.1024C0.617746 31.1722 0.656458 31.2358 0.708324 31.2876C0.760192 31.3396 0.82371 31.3782 0.89358 31.4006C0.963452 31.4228 1.03765 31.4282 1.10998 31.416C2.45198 31.21 5.65598 30.584 7.11998 29.12Z" fill="#BDBDBD"/>
</g>
<defs>
<clipPath id="clip0_13_82">
<rect width="32" height="32" fill="white"/>
</clipPath>
</defs>
</svg>
